<svg xmlns="http://www.w3.org/2000/svg" xmlns:xlink="http://www.w3.org/1999/xlink" width="512" height="512" viewBox="0 0 512 512" fill="none"><g opacity="1" transform="translate(0 0)  rotate(0 256 256)"><path id="排除重叠" fill-rule="evenodd" style="fill:#222222" transform="translate(52.774465922713034 25.799999999999898)  rotate(0 200 230.2)" opacity="1" d="M0.4 115.5L0 345.7L199.6 460.4L399.6 344.9L400 114.7L200.4 0L0.4 115.5Z M106.501 330.2L125.501 340.2L144.501 330.2L144.501 249.2L255.501 249.2L255.501 330.2L274.501 340.2L293.501 330.2L293.501 130.2L274.501 120.2L255.501 130.2L255.501 211.2L144.501 211.2L144.501 130.2L125.501 120.2L106.501 130.2L106.501 211.2L106.501 230.2L106.501 249.2L106.501 330.2Z " /></g></svg>